Coordinates
version=1
nRows=8
nColumns=33
inDegrees=yes

Units are S.I. units (second, meters, Newtons, ...)
Angles are in degrees.

endheader
time	ground_thorax_rot_x	ground_thorax_rot_y	ground_thorax_rot_z	ground_thorax_tx	ground_thorax_ty	ground_thorax_tz	clav_prot_r	clav_elev_r	scapula_abduction_r	scapula_elevation_r	scapula_upward_rot_r	scapula_winging_r	shoulder_elv_r	plane_of_elev_r	axial_rot_r	elbow_flexion_r	pro_sup_r	wrist_flex_r	wrist_dev_r	clav_prot_l	clav_elev_l	scapula_abduction_l	scapula_elevation_l	scapula_upward_rot_l	scapula_winging_l	shoulder_elv_l	plane_of_elev_l	axial_rot_l	elbow_flexion_l	pro_sup_l	wrist_flex_l	wrist_dev_l
      5.92000000	    -40.56863141	    -13.49502161	     13.08623250	   -200.22009210	    822.29543197	    -11.95477862	      4.90989015	    -45.00000000	     33.33320258	    -45.00000000	    -20.78810578	   1690.83636878	   -292.89202307	     21.52742769	   -179.99999979	    726.17026578	    267.50300858	     18.15918141	     10.73124314	     15.17960259	     38.31610588	    -34.04633909	    -45.00000000	    -45.00000000	   -637.60812843	  -3530.55449757	     17.47925812	    -51.26655028	      9.48986027	     35.09203658	      8.66581645	    -22.27908701
      5.93000000	    -40.57814317	    -12.97913814	     12.70849199	   -201.08630094	    823.32066555	    -12.08898331	      3.82528900	    -45.00000000	     32.94530333	    -45.00000000	    -20.07736671	   1691.25192787	   -292.43717042	     21.20664099	   -179.99999979	    726.02864893	    267.67298059	     18.35170287	     10.51181380	     15.24366844	     38.45205057	    -34.25667605	    -45.00000000	    -45.00000000	   -637.63765794	  -3530.60997160	     17.50750983	    -51.01010366	      9.72262079	     35.34721002	      9.30963744	    -21.60743975
      5.94000000	    -40.53932243	    -12.76480969	     12.41183948	   -201.77510874	    824.23450133	    -12.19215193	      4.15687914	    -45.00000000	     33.29338811	    -45.00000000	    -19.86416511	   1690.94988968	   -292.77352085	     21.50072320	   -179.99999979	    725.93490269	    267.78408494	     18.36635803	     10.52744220	     15.27481937	     38.39293831	    -34.11282977	    -45.00000000	    -45.00000000	   -637.75264960	  -3530.55114873	     17.56597190	    -51.10794241	      9.57192556	     35.50216364	      8.92739838	    -22.04731963
      5.95000000	    -40.52248312	    -12.77092375	     12.56810235	   -202.29965364	    825.03969253	    -12.26406687	      3.98706308	    -45.00000000	     33.23200186	    -45.00000000	    -19.51918362	   1691.06698239	   -292.46018002	     21.24894931	   -179.99999979	    726.03981706	    267.90906477	     18.42014440	     10.45359445	     15.20115775	     38.36017778	    -34.06991317	    -45.00000000	    -45.00000000	   -637.54023620	  -3530.37337221	     17.53732398	    -51.23869542	      9.91077657	     35.74990828	      9.18669283	    -21.62277589
      5.96000000	    -40.54361766	    -12.43961770	     12.28249296	   -202.67358732	    825.74164180	    -12.30399146	      4.16188340	    -45.00000000	     33.43575052	    -45.00000000	    -19.53787299	   1690.75429894	   -292.88463924	     21.49964013	   -179.99999979	    725.79476371	    268.04208854	     18.45626794	     10.49317210	     15.23300853	     38.33496806	    -34.16396294	    -45.00000000	    -45.00000000	   -637.57694517	  -3530.28783570	     17.55435468	    -51.35441295	      9.82696705	     35.90875108	      8.51364154	    -22.21418862
      5.97000000	    -40.35719973	    -12.60871131	     12.54483486	   -202.91532000	    826.35625364	    -12.31148235	      4.06818262	    -45.00000000	     33.46170729	    -45.00000000	    -19.34643276	   1690.93192179	   -292.42484673	     21.29808740	   -179.99999979	    725.82737266	    268.30559517	     18.43013698	     10.37272939	     15.19324090	     38.28099880	    -33.97914298	    -45.00000000	    -45.00000000	   -637.57137433	  -3530.27480474	     17.47335567	    -51.56383571	     10.04795715	     36.30937141	      8.96759501	    -21.69976627
      5.98000000	    -40.38615297	    -12.39197088	     12.41517173	   -203.03762518	    826.89212829	    -12.28611126	      4.20159092	    -45.00000000	     33.46135368	    -45.00000000	    -19.23026206	   1690.71953675	   -292.62188290	     21.51141820	   -179.99999979	    725.84358100	    268.61314590	     18.55834217	     10.44915957	     15.17759462	     38.32558317	    -34.13351119	    -45.00000000	    -45.00000000	   -637.51333733	  -3530.31270218	     17.43691726	    -51.68415987	      9.93141785	     36.57171594	      8.33838355	    -22.04339621
      5.99000000	    -40.27171726	    -12.59851492	     12.56917662	   -203.05641208	    827.36318353	    -12.22966309	      4.05697451	    -45.00000000	     33.64620989	    -45.00000000	    -19.01215352	   1690.96214031	   -292.42295951	     21.21754959	   -179.99999979	    725.78034416	    268.99898192	     18.47454342	     10.29650135	     15.23680842	     38.24480463	    -33.90924626	    -45.00000000	    -45.00000000	   -637.45538641	  -3530.09291104	     17.41305432	    -51.90073264	     10.35956492	     36.99254329	      8.83096915	    -21.64283017
